<?xml version="1.0" encoding="UTF-8"?>
<svg version="1.1" viewBox="0 0 1920 1440" width="1280" height="1280" xmlns="http://www.w3.org/2000/svg">
<path transform="translate(0)" d="m0 0h1920v1440h-1920z" fill="#FCFCFC"/>
<path transform="translate(531,356)" d="m0 0h858l14 3 9 5 7 6 7 11 3 8 1 20-1 97v312l1 62v96l-3 12-5 9-8 9-10 6-11 3h-867l-10-3-10-6-7-7-6-10-2-5-1-6v-587l3-10 7-10 7-7 12-6z" fill="#FCFCFC"/>
<path transform="translate(531,356)" d="m0 0h858l14 3 9 5 7 6 7 11 3 8 1 20-1 97v312l1 62v96l-3 12-5 9-8 9-10 6-11 3h-867l-10-3-10-6-7-7-6-10-2-5-1-6v-587l3-10 7-10 7-7 12-6zm12 24-16 1-9 6-4 8-1 66v350l1 124 4-2 46-46 7-8 61-61 7-8 42-42v-2l4-2 13-13 14-9 10-3h20l10 3 11 6 14 12 216 216 5 3h6l6-5 3-6-1-6-9-10-11-11-7-8-17-16-96-96 2-5 12-16 9-13 12-17 14-20 13-18 9-13 10-14 12-17 14-20 12-17 30-42 16-23 13-18 8-11 5-6 10-7 11-5 11-2 16 1 11 4 12 7 10 11 14 20 36 51 10 14 12 17 13 18 11 16 13 18 13 19 13 18 28 40 26 36 13 19 11 15 13 19 26 36 8 11h2v-530l-3-9-7-6-2-1-11-1z" fill="#636363"/>
<path transform="translate(728,485)" d="m0 0 17 2 14 5 11 7 9 8 9 13 6 13 2 8v21l-4 15-7 13-11 12-7 6-16 8-11 3h-21l-12-3-14-7-10-8-8-9-8-14-4-13-1-6v-12l3-14 5-12 7-11 11-11 14-8 10-4z" fill="#636363"/>
<path transform="translate(1138,1121)" d="m0 0h14l10 5 5 4v-6l1-1h9l1 4v104l-3 10-6 8-7 5-7 2h-15l-9-4-6-5-5-10 1-3 7-1 4 4 2 5 4 2 6 2h9l6-3 6-8 2-10 1-10-10 7-7 3h-11l-8-3-8-8-5-11-3-17v-26l3-16 4-9 6-8 6-5z" fill="#636363"/>
<path transform="translate(666,1088)" d="m0 0h13l5 10 16 36 15 33 13 29 3 4v-99l1-13h9l1 2v132l-5 1-9-1-15-33-36-82-1 115-1 1h-9l-1-43v-24z" fill="#636363"/>
<path transform="translate(1062,1121)" d="m0 0h18l8 4 6 9 2 7 1 70 7 6v5l-1 1h-14l-3-7-6 4-7 4-4 1h-13l-8-5-6-8-2-6v-15l4-11 7-7 10-5 16-6 6-4 1-1v-16l-3-6-5-4-10-1-8 5-4 8-1 6-10-1v-7l4-10 9-8z" fill="#636363"/>
<path transform="translate(947,1121)" d="m0 0h15l8 5 5 5 8-6 11-4h12l6 3 5 4 4 6 1 3v85l-5 1-5-1-1-81-4-6-7-5h-9l-8 5-4 5-1 2-1 76-1 4h-10l-1-80-4-8-6-4h-8l-10 6-5 7-1 70-1 9h-10v-99l4-1 6 1 1 7h2l9-7z" fill="#636363"/>
<path transform="translate(1221,1121)" d="m0 0h12l9 3 7 6 6 12 2 12v17l-1 1h-49l1 18 3 12 4 8 6 5h13l6-4 5-10 2-10 1-1h6l2 1v9l-4 11-6 8-10 5-14 1-10-4-7-6-6-11-3-15v-31l3-15 6-12 9-8z" fill="#636363"/>
<path transform="translate(790,1129)" d="m0 0h9l6 3 6 7 3 9 1 8v32l-3 15-5 9-6 4h-14l-5-3-6-7-4-12-1-8v-24l3-17 4-8 7-6z" fill="#FCFCFC"/>
<path transform="translate(1143,1129)" d="m0 0h10l6 4 6 8 2 7 1 8v34l-3 14-6 8-6 4h-11l-7-6-5-10-3-16v-21l3-17 5-10z" fill="#FCFCFC"/>
<path transform="translate(787,1121)" d="m0 0h13l9 3 8 7 4 7 4 11 1 9v30l-3 15-5 10-5 6-10 5-6 1h-9l-10-3-5-3-6-8-4-9-2-9-1-21 2-22 4-12 6-9 8-6zm3 8-8 4-6 7-3 9-2 13v24l2 12 4 9 7 8 3 1h14l6-4 5-9 3-15v-32l-2-12-4-8-7-6-3-1z" fill="#636363"/>
<path transform="translate(1082,1170)" d="m0 0h3v29l-3 8-4 5-7 4h-10l-6-5-3-6-1-4v-8l5-10 9-6z" fill="#FCFCFC"/>
<path transform="translate(1223,1129)" d="m0 0h11l7 4 5 10 2 12v8l-24 1h-15l-2-1 1-13 4-12 5-6z" fill="#FCFCFC"/>
<path transform="translate(888,1124)" d="m0 0h11v28l-1 70h-10z" fill="#636363"/>
<path transform="translate(888,1087)" d="m0 0 12 1v16l-1 1h-10l-1-1z" fill="#636363"/>
</svg>
